REM MD5 f7e7e7db671c5d26edc37716464d4400
FILE "Super Pang Collection (Europe).bin" BINARY
  TRACK 01 MODE2/2352
    INDEX 01 00:00:00
  TRACK 02 AUDIO
    INDEX 00 01:30:36
    INDEX 01 01:32:36
  TRACK 03 AUDIO
    INDEX 00 02:08:44
    INDEX 01 02:10:44
  TRACK 04 AUDIO
    INDEX 00 02:38:71
    INDEX 01 02:40:71
  TRACK 05 AUDIO
    INDEX 00 03:10:72
    INDEX 01 03:12:72
  TRACK 06 AUDIO
    INDEX 00 03:21:31
    INDEX 01 03:23:31
  TRACK 07 AUDIO
    INDEX 00 04:16:28
    INDEX 01 04:18:28
  TRACK 08 AUDIO
    INDEX 00 04:23:70
    INDEX 01 04:25:70
  TRACK 09 AUDIO
    INDEX 00 05:21:64
    INDEX 01 05:23:64
  TRACK 10 AUDIO
    INDEX 00 06:16:63
    INDEX 01 06:18:63
  TRACK 11 AUDIO
    INDEX 00 07:08:64
    INDEX 01 07:10:64
  TRACK 12 AUDIO
    INDEX 00 08:00:65
    INDEX 01 08:02:65
  TRACK 13 AUDIO
    INDEX 00 08:52:65
    INDEX 01 08:54:65
  TRACK 14 AUDIO
    INDEX 00 09:44:66
    INDEX 01 09:46:66
  TRACK 15 AUDIO
    INDEX 00 10:36:66
    INDEX 01 10:38:66
  TRACK 16 AUDIO
    INDEX 00 11:28:67
    INDEX 01 11:30:67
  TRACK 17 AUDIO
    INDEX 00 12:20:68
    INDEX 01 12:22:68
  TRACK 18 AUDIO
    INDEX 00 13:12:68
    INDEX 01 13:14:68
  TRACK 19 AUDIO
    INDEX 00 14:04:69
    INDEX 01 14:06:69
  TRACK 20 AUDIO
    INDEX 00 14:56:69
    INDEX 01 14:58:69
  TRACK 21 AUDIO
    INDEX 00 15:48:71
    INDEX 01 15:50:71
  TRACK 22 AUDIO
    INDEX 00 16:40:71
    INDEX 01 16:42:71
  TRACK 23 AUDIO
    INDEX 00 17:32:72
    INDEX 01 17:34:72
  TRACK 24 AUDIO
    INDEX 00 18:24:71
    INDEX 01 18:26:71
  TRACK 25 AUDIO
    INDEX 00 19:15:69
    INDEX 01 19:17:69
  TRACK 26 AUDIO
    INDEX 00 20:07:71
    INDEX 01 20:09:71
  TRACK 27 AUDIO
    INDEX 00 20:59:73
    INDEX 01 21:01:73
  TRACK 28 AUDIO
    INDEX 00 21:51:74
    INDEX 01 21:53:74
  TRACK 29 AUDIO
    INDEX 00 22:44:01
    INDEX 01 22:46:01
  TRACK 30 AUDIO
    INDEX 00 23:36:01
    INDEX 01 23:38:01
  TRACK 31 AUDIO
    INDEX 00 24:28:01
    INDEX 01 24:30:01
  TRACK 32 AUDIO
    INDEX 00 25:20:01
    INDEX 01 25:22:01
  TRACK 33 AUDIO
    INDEX 00 26:12:02
    INDEX 01 26:14:02
  TRACK 34 AUDIO
    INDEX 00 27:04:07
    INDEX 01 27:06:07
  TRACK 35 AUDIO
    INDEX 00 27:39:69
    INDEX 01 27:41:69
  TRACK 36 AUDIO
    INDEX 00 27:58:15
    INDEX 01 28:00:15
  TRACK 37 AUDIO
    INDEX 00 28:05:68
    INDEX 01 28:07:68
  TRACK 38 AUDIO
    INDEX 00 28:41:03
    INDEX 01 28:43:03
  TRACK 39 AUDIO
    INDEX 00 29:13:03
    INDEX 01 29:15:03
  TRACK 40 AUDIO
    INDEX 00 29:20:04
    INDEX 01 29:22:04
  TRACK 41 AUDIO
    INDEX 00 29:28:38
    INDEX 01 29:30:38
  TRACK 42 AUDIO
    INDEX 00 30:25:67
    INDEX 01 30:27:67
  TRACK 43 AUDIO
    INDEX 00 32:35:13
    INDEX 01 32:37:13
  TRACK 44 AUDIO
    INDEX 00 33:29:73
    INDEX 01 33:31:73
  TRACK 45 AUDIO
    INDEX 00 33:36:74
    INDEX 01 33:38:74
  TRACK 46 AUDIO
    INDEX 00 33:50:44
    INDEX 01 33:52:44
  TRACK 47 AUDIO
    INDEX 00 34:22:44
    INDEX 01 34:24:44
  TRACK 48 AUDIO
    INDEX 00 35:34:45
    INDEX 01 35:36:45
  TRACK 49 AUDIO
    INDEX 00 36:36:46
    INDEX 01 36:38:46
  TRACK 50 AUDIO
    INDEX 00 37:28:47
    INDEX 01 37:30:47
  TRACK 51 AUDIO
    INDEX 00 37:52:29
    INDEX 01 37:54:29
  TRACK 52 AUDIO
    INDEX 00 38:44:29
    INDEX 01 38:46:29
  TRACK 53 AUDIO
    INDEX 00 39:16:29
    INDEX 01 39:18:29
  TRACK 54 AUDIO
    INDEX 00 39:48:29
    INDEX 01 39:50:29
  TRACK 55 AUDIO
    INDEX 00 41:00:69
    INDEX 01 41:02:69
  TRACK 56 AUDIO
    INDEX 00 41:07:70
    INDEX 01 41:09:70
  TRACK 57 AUDIO
    INDEX 00 41:59:70
    INDEX 01 42:01:70
  TRACK 58 AUDIO
    INDEX 00 42:51:71
    INDEX 01 42:53:71
  TRACK 59 AUDIO
    INDEX 00 43:43:72
    INDEX 01 43:45:72
  TRACK 60 AUDIO
    INDEX 00 44:35:73
    INDEX 01 44:37:73
  TRACK 61 AUDIO
    INDEX 00 45:17:73
    INDEX 01 45:19:73
REM LEADOUT 48:49:73
